<?xml version="1.0" encoding="UTF-8" standalone="no"?>
<svg
   xmlns:dc="http://purl.org/dc/elements/1.1/"
   xmlns:cc="http://creativecommons.org/ns#"
   xmlns:rdf="http://www.w3.org/1999/02/22-rdf-syntax-ns#"
   xmlns:svg="http://www.w3.org/2000/svg"
   xmlns="http://www.w3.org/2000/svg"
   xmlns:sodipodi="http://sodipodi.sourceforge.net/DTD/sodipodi-0.dtd"
   xmlns:inkscape="http://www.inkscape.org/namespaces/inkscape"
   version="1.1"
   id="svg844"
   width="2236.2476"
   height="1346.8169"
   viewBox="0 0 2236.2476 1346.8169"
   sodipodi:docname="Cartoon_Network_Studios_(2021).svg"
   inkscape:version="1.0.1 (3bc2e813f5, 2020-09-07)">
  <style
     id="style856"></style>
  <metadata
     id="metadata850">
    <rdf:RDF>
      <cc:Work
         rdf:about="">
        <dc:format>image/svg+xml</dc:format>
        <dc:type
           rdf:resource="http://purl.org/dc/dcmitype/StillImage" />
        <dc:title></dc:title>
      </cc:Work>
    </rdf:RDF>
  </metadata>
  <defs
     id="defs848" />
  <sodipodi:namedview
     pagecolor="#ffffff"
     bordercolor="#666666"
     borderopacity="1"
     objecttolerance="10"
     gridtolerance="10"
     guidetolerance="10"
     inkscape:pageopacity="0"
     inkscape:pageshadow="2"
     inkscape:window-width="1366"
     inkscape:window-height="706"
     id="namedview846"
     showgrid="false"
     inkscape:zoom="0.2312747"
     inkscape:cx="1128.8379"
     inkscape:cy="573.95412"
     inkscape:window-x="-8"
     inkscape:window-y="-8"
     inkscape:window-maximized="1"
     inkscape:current-layer="g852" />
  <g
     inkscape:groupmode="layer"
     inkscape:label="Image"
     id="g852"
     transform="translate(666.5504,398.50562)">
    <g
       id="g1026"
       transform="matrix(2.5,0,0,2.5,-677.36006,-412.35422)">
      <rect
         style="fill:#000000;stroke-width:75.991;stroke-linecap:square;paint-order:stroke fill markers"
         id="rect988"
         width="894.49902"
         height="538.72675"
         x="4.3238626"
         y="5.5394406" />
      <path
         style="fill:#ffffff;stroke-width:14.1686;stroke-linecap:square;paint-order:stroke fill markers"
         d="M 745.48416,194.62891 H 862.81355 V 44.568359 H 745.48416 Z"
         id="path971" />
      <path
         style="fill:#ffffff;stroke-width:14.1686;stroke-linecap:square;paint-order:stroke fill markers"
         d="m 628.15672,194.62891 v 150.0625 h 117.32744 v -150.0625 z"
         id="path969" />
      <path
         style="fill:#ffffff;stroke-width:14.1686;stroke-linecap:square;paint-order:stroke fill markers"
         d="M 510.82734,194.62891 H 628.15672 V 44.568359 H 510.82734 Z"
         id="path967" />
      <path
         style="fill:#ffffff;stroke-width:14.1686;stroke-linecap:square;paint-order:stroke fill markers"
         d="m 393.49795,194.62891 v 150.0625 h 117.32939 v -150.0625 z"
         id="path965" />
      <path
         style="fill:#ffffff;stroke-width:14.1686;stroke-linecap:square;paint-order:stroke fill markers"
         d="M 276.16856,194.62891 H 393.49795 V 44.568359 H 276.16856 Z"
         id="path963" />
      <path
         style="fill:#ffffff;stroke-width:14.1686;stroke-linecap:square;paint-order:stroke fill markers"
         d="m 158.83917,194.62891 v 150.0625 h 117.32939 v -150.0625 z"
         id="path961" />
      <path
         style="fill:#ffffff;stroke-width:14.1686;stroke-linecap:square;paint-order:stroke fill markers"
         d="M 41.511719,44.568359 V 194.62891 H 158.83917 V 44.568359 Z"
         id="rect910" />
      <path
         d="m 153.8441,131.37699 c 0.45451,-0.90902 0.30301,-1.36353 -1.36352,-1.96954 l -40.1483,-13.93827 c -0.90902,-0.30301 -1.21202,-0.30301 -1.36353,0.303 -1.36352,2.42405 -3.78757,4.39359 -7.87815,4.39359 -5.454111,0 -9.241686,-3.63607 -9.241686,-9.09018 0,-5.45411 3.181563,-9.09018 9.090176,-9.09018 4.39359,0 6.66614,1.66653 8.02966,4.39359 0.15151,0.4545 0.60601,0.303 1.21203,0.1515 l 39.99679,-15.604809 c 0.75751,-0.303006 1.36353,-0.757515 0.75751,-2.575551 C 146.11745,71.078797 129.90663,56.08 103.54511,56.08 69.911439,56.08 47.792,80.471984 47.792,111.07559 c 0,32.57315 22.573948,54.54108 55.2986,54.54108 25.75551,0 43.17835,-16.66533 50.7535,-34.23968 z"
         style="fill:#000000;stroke-width:5.68133"
         id="path862" />
      <path
         d="M 277.34339,159.85956 C 258.55701,126.5289 238.86162,89.86517 221.28727,57.746533 c -0.303,-0.606012 -2.12104,-0.606012 -3.93908,-0.606012 -1.66653,0 -3.33306,0.151503 -3.63607,0.757515 -15.90781,29.543086 -36.36072,68.933864 -54.69258,101.961524 -0.90902,1.51503 -0.60601,2.12104 0.60601,2.12104 11.36272,0 26.21002,0 37.11824,0 2.12104,0 2.27254,-0.30301 3.03006,-1.66653 1.81803,-3.63608 2.42404,-5.30261 4.39358,-9.54469 h 24.08898 c 1.81804,3.78757 2.87856,5.90861 4.69659,9.99919 0.60602,1.06053 1.36353,1.21203 2.12105,1.21203 13.02926,0 33.63366,0 41.66332,0 1.66654,0 1.66654,0 0.60602,-2.12104 z m -56.66213,-33.78517 h -8.63567 c 0,0 1.21202,-2.27255 1.96954,-4.09058 1.36353,-3.03006 2.42405,-6.06013 2.42405,-6.06013 0,0 1.06052,3.03007 2.42404,6.06013 1.06053,2.42404 1.81804,4.09058 1.81804,4.09058 z"
         style="fill:#ffffff;stroke-width:5.68133"
         id="path864" />
      <path
         d="m 393.61309,161.22308 c 0,-0.60601 -0.60601,-1.66653 -1.81803,-3.33306 -9.69619,-14.08978 -19.08938,-27.57355 -23.33147,-33.78517 9.54469,-3.93908 13.02926,-16.21082 13.02926,-30.149099 0,-18.63487 -11.81723,-34.694188 -37.72425,-34.694188 h -54.38957 c -0.75752,0 -1.51503,-0.151503 -1.51503,1.363527 0,36.209218 0,60.90421 0,99.99198 0,1.51503 0,1.36353 1.51503,1.36353 9.84769,0 25.90701,0 36.51222,0 1.36353,0 1.51503,-0.1515 1.51503,-1.36353 0,-11.81723 0,-21.21042 0,-21.21042 l 5.75711,-0.30301 c 0,0 5.60562,10.15071 11.21123,19.8469 1.66653,2.72705 2.27254,3.03006 3.63607,3.03006 h 43.48136 c 1.36353,0 2.12104,-0.1515 2.12104,-0.75752 z m -55.4501,-64.388772 c 0,5.757112 -4.24208,8.029662 -7.57515,8.029662 H 328.3153 V 88.804649 h 2.42405 c 3.33306,0 7.42364,2.727054 7.42364,8.029659 z"
         style="fill:#000000;stroke-width:5.68133"
         id="path866" />
      <path
         d="m 502.818,95.470781 c 0,-8.332665 0,-24.391984 0,-34.694188 0,-1.212024 -0.1515,-1.51503 -1.21202,-1.51503 h -89.84129 c -1.21202,0 -1.21202,0.303006 -1.21202,1.51503 0,10.302204 0,26.361523 0,34.694188 0,0.909018 0,1.060521 1.06052,1.060521 l 23.02846,-1.51503 c 0,0 0,46.814428 0,65.600798 0,1.51503 0,1.36353 1.51503,1.36353 9.9992,0 31.36112,0 41.96633,0 1.36353,0 1.51503,-0.1515 1.51503,-1.36353 0,-11.81723 0,-65.600798 0,-65.600798 l 22.11944,1.51503 c 0.90902,0 1.06052,-0.151503 1.06052,-1.060521 z"
         style="fill:#ffffff;stroke-width:5.68133"
         id="path868" />
      <path
         d="m 622.14197,110.92409 c 0,-33.785173 -26.66453,-54.84409 -55.60161,-54.84409 -30.3006,0 -55.6016,22.119438 -55.6016,54.69258 0,30.90662 23.17996,54.84409 55.6016,54.84409 29.39159,0 55.60161,-22.57395 55.60161,-54.69258 z m -45.90541,-0.30301 c 0,6.36313 -4.24209,10.1507 -9.6962,10.1507 -5.60561,0 -9.54469,-3.63607 -9.54469,-10.1507 0,-5.30261 3.63608,-9.24168 9.54469,-9.24168 5.90862,0 9.6962,3.63607 9.6962,9.24168 z"
         style="fill:#000000;stroke-width:5.68133"
         id="path870" />
      <path
         d="m 742.76868,110.92409 c 0,-33.785173 -26.66453,-54.84409 -55.60161,-54.84409 -30.3006,0 -55.6016,22.119438 -55.6016,54.69258 0,30.90662 23.17996,54.84409 55.6016,54.84409 29.39159,0 55.60161,-22.57395 55.60161,-54.69258 z m -45.90541,-0.30301 c 0,6.36313 -4.24209,10.1507 -9.6962,10.1507 -5.60561,0 -9.54469,-3.63607 -9.54469,-10.1507 0,-5.30261 3.63608,-9.24168 9.54469,-9.24168 5.90862,0 9.6962,3.63607 9.6962,9.24168 z"
         style="fill:#ffffff;stroke-width:5.68133"
         id="path872" />
      <path
         d="m 854.27474,162.73811 c 0.45451,-39.39078 0.30301,-72.115425 0,-101.658511 0,-1.51503 0,-1.818036 -1.66653,-1.818036 -10.60521,0 -26.66453,0 -36.51222,0 -1.51503,0 -1.36353,0.151503 -1.36353,1.818036 v 30.75511 c 0,0 -32.87615,-20.452906 -56.81363,-34.997194 -0.60601,-0.454509 -1.06052,-0.606012 -1.36352,-0.454509 -0.15151,0.151503 -0.30301,0.606012 -0.30301,1.363527 -0.30301,40.148296 -0.45451,62.722247 0,102.719037 0,0.60601 0.30301,1.51503 1.66653,1.51503 9.8477,0 25.60401,0 36.20922,0 1.51503,0 1.51503,0 1.51503,-1.36353 v -30.90661 c 0,0 31.20962,19.08938 56.66212,34.54268 0.75752,0.45451 1.36353,0.60602 1.66654,0.45451 0.303,-0.1515 0.303,-0.90902 0.303,-1.96954 z"
         style="fill:#000000;stroke-width:5.68133"
         id="path874" />
      <path
         d="m 148.70344,327.24036 c 0.44464,-38.53538 0.29642,-70.54938 0,-99.45092 0,-1.48213 0,-1.77855 -1.63034,-1.77855 -10.37491,0 -26.08549,0 -35.71934,0 -1.48213,0 -1.33391,0.14821 -1.33391,1.77855 v 30.08724 c 0,0 -32.162228,-20.00875 -55.579882,-34.2372 -0.592852,-0.44464 -1.037491,-0.59285 -1.333917,-0.44464 -0.148213,0.14821 -0.296426,0.59285 -0.296426,1.33392 -0.296426,39.27644 -0.444639,61.36018 0,100.48841 0,0.59285 0.296426,1.48213 1.630343,1.48213 9.633845,0 25.047997,0 35.422907,0 1.482129,0 1.482129,0 1.482129,-1.33392 v -30.23545 c 0,0 30.531886,18.67484 55.431666,33.79256 0.74106,0.44464 1.33392,0.59286 1.63034,0.44464 0.29643,-0.14821 0.29643,-0.88928 0.29643,-1.92677 z"
         style="fill:#ffffff;stroke-width:0.733709"
         id="path888" />
      <path
         d="m 256.44894,324.42432 c 0,-6.07674 0,-17.78556 0,-25.19621 0,-1.92677 0,-1.92677 -1.63034,-1.92677 h -36.75682 v -7.26244 h 34.38541 c 1.63034,0 1.77856,-0.29643 1.77856,-1.92677 0,-5.92852 0,-16.74807 0,-24.0105 0,-1.77856 -0.14822,-2.07499 -1.77856,-2.07499 h -34.38541 v -6.37315 h 35.4229 c 1.48213,0 1.77856,-0.44464 1.77856,-2.07499 0,-6.37316 0,-18.2302 0,-25.49263 0,-1.92677 -0.14821,-2.07498 -1.77856,-2.07498 H 179.5264 c -1.77856,0 -1.63035,0.14821 -1.63035,1.48213 0,28.45689 0,70.99402 0,96.9313 0,1.77855 0.14822,2.07498 1.77856,2.07498 h 75.14399 c 1.48213,0 1.63034,-0.29643 1.63034,-2.07498 z"
         style="fill:#000000;stroke-width:0.733709"
         id="path890" />
      <path
         d="m 381.67651,261.43379 c 0,-8.15171 0,-23.86229 0,-33.94077 0,-1.18571 -0.14821,-1.48213 -1.1857,-1.48213 H 292.6005 c -1.18571,0 -1.18571,0.29642 -1.18571,1.48213 0,10.07848 0,25.78906 0,33.94077 0,0.88928 0,1.03749 1.03749,1.03749 l 22.52838,-1.48213 c 0,0 0,45.79782 0,64.17623 0,1.48213 0,1.33392 1.48213,1.33392 9.78206,0 30.68009,0 41.055,0 1.33392,0 1.48213,-0.14821 1.48213,-1.33392 0,-11.56061 0,-64.17623 0,-64.17623 l 21.6391,1.48213 c 0.88928,0 1.03749,-0.14821 1.03749,-1.03749 z"
         style="fill:#ffffff;stroke-width:0.733709"
         id="path892" />
      <path
         d="m 521.60902,227.93765 c 0.88928,-1.92676 0.88928,-1.92676 -1.33391,-1.92676 h -38.98002 c -1.33392,0 -1.03749,0 -1.77856,1.48213 -5.48388,11.26418 -9.93027,20.89803 -9.93027,20.89803 0,0 -8.59635,-14.08024 -13.19096,-21.93553 -0.44464,-0.74106 -1.1857,-1.33391 -1.92677,-1.33391 -0.74106,0 -1.63034,0.59285 -2.07498,1.33391 -4.89103,7.26244 -14.08023,21.49089 -14.08023,21.49089 0,0 -4.44639,-9.33742 -9.18921,-19.26769 -0.88928,-1.77856 -1.33391,-2.51962 -4.14996,-2.66783 h -39.8693 c -1.77855,0 -1.92677,0.29642 -0.88928,2.66783 17.19271,42.83356 26.08549,64.02801 41.79607,100.48841 0.29643,0.59285 1.03749,0.88928 1.77856,0.88928 0.74106,0 1.63034,-0.29643 2.07498,-0.88928 14.67308,-24.0105 22.52837,-37.05325 22.52837,-37.05325 0,0 7.55887,12.59811 22.38017,36.90504 0.59285,0.88928 1.1857,1.1857 1.92676,1.1857 0.88928,0 1.77856,-0.59285 2.07499,-1.48213 15.56236,-36.75682 24.89978,-58.54413 42.83355,-100.78484 z"
         style="fill:#000000;stroke-width:0.733709"
         id="path894" />
      <path
         d="m 624.08086,276.55152 c 0,-33.0515 -26.08549,-53.65311 -54.39417,-53.65311 -29.6426,0 -54.39417,21.6391 -54.39417,53.50489 0,30.23546 22.67659,53.65311 54.39417,53.65311 28.75332,0 54.39417,-22.08374 54.39417,-53.50489 z m -44.90854,-0.29643 c 0,6.22495 -4.14997,9.93027 -9.48563,9.93027 -5.48388,0 -9.33742,-3.55711 -9.33742,-9.93027 0,-5.18745 3.55711,-9.04099 9.33742,-9.04099 5.7803,0 9.48563,3.55711 9.48563,9.04099 z"
         style="fill:#ffffff;stroke-width:0.733709"
         id="path896" />
      <path
         d="m 738.42791,325.75823 c 0,-0.59285 -0.59285,-1.63034 -1.77855,-3.26068 -9.48564,-13.78381 -18.67484,-26.97477 -22.82481,-33.0515 9.33742,-3.85354 12.74632,-15.85879 12.74632,-29.49439 0,-18.2302 -11.56061,-33.94077 -36.90503,-33.94077 h -53.20847 c -0.74107,0 -1.48213,-0.14822 -1.48213,1.33391 0,35.42291 0,59.58163 0,97.82058 0,1.48213 0,1.33392 1.48213,1.33392 9.63384,0 25.34442,0 35.71933,0 1.33392,0 1.48213,-0.14821 1.48213,-1.33392 0,-11.56061 0,-20.74982 0,-20.74982 l 5.6321,-0.29642 c 0,0 5.48388,9.93027 10.96776,19.4159 1.63034,2.66783 2.22319,2.96426 3.55711,2.96426 h 42.53713 c 1.33392,0 2.07498,-0.14821 2.07498,-0.74107 z m -54.24596,-62.99052 c 0,5.63209 -4.14996,7.85529 -7.41065,7.85529 h -2.22319 v -15.71058 h 2.37141 c 3.26068,0 7.26243,2.66783 7.26243,7.85529 z"
         style="fill:#000000;stroke-width:0.733709"
         id="path898" />
      <path
         d="M 862.32681,324.42432 C 851.9519,308.12089 826.16284,268.3998 826.16284,268.3998 c 0,0 21.93552,-27.12298 32.90328,-40.61036 1.03749,-1.1857 0.74107,-1.77855 -1.03749,-1.77855 h -41.94428 c -1.03749,0 -1.48213,0.29642 -1.92677,0.88927 -9.63384,13.19096 -14.8213,20.74982 -14.8213,20.74982 0,0 0,-8.74456 0,-20.30518 0,-1.1857 -0.14821,-1.33391 -1.48213,-1.33391 -10.37491,0 -25.78906,0 -35.4229,0 -1.48213,0 -1.48213,-0.14822 -1.48213,1.33391 0,35.42291 0,59.58163 0,97.82058 0,1.48213 0,1.33392 1.48213,1.33392 9.63384,0 25.04799,0 35.4229,0 1.33392,0 1.48213,-0.14821 1.48213,-1.33392 0,-11.56061 0,-18.2302 0,-18.2302 l 3.11248,-3.70532 c 0,0 6.81779,12.74632 11.70882,21.49088 0.74107,1.48213 0.74107,1.77856 2.2232,1.77856 h 44.90854 c 1.48213,0 2.22319,-0.29643 1.03749,-2.07498 z"
         style="fill:#ffffff;stroke-width:0.733709"
         id="path900" />
      <path
         d="m 181.67597,453.25415 c 0,-26.0202 -18.04067,-33.47932 -35.214,-36.42828 -2.42855,-0.34693 -4.51017,-0.69387 -6.24485,-1.0408 -6.41832,-1.04081 -8.6734,-3.46936 -8.6734,-5.37751 0,-1.73468 1.56121,-2.94896 4.3367,-2.94896 3.64283,0 7.63259,1.90815 8.84687,4.68364 0.5204,1.38774 0.69387,1.38774 2.08162,0.69387 l 29.66302,-11.62236 c 1.73468,-0.69387 1.56122,-0.86734 1.21428,-2.94895 -3.29589,-15.09172 -17.8672,-25.4998 -42.15273,-25.4998 -32.95892,0 -50.479184,17.3468 -50.479184,44.40781 0,27.40794 22.897774,35.04054 36.081344,36.08134 1.21428,0.17347 3.12242,0.34694 4.3367,0.52041 4.8571,0.69387 6.41832,2.60202 6.41832,5.55097 0,2.08162 -1.90815,3.64283 -5.20404,3.64283 -3.98977,0 -8.32647,-2.25508 -9.54074,-6.24485 -0.34694,-1.21427 -0.52041,-1.38774 -2.08162,-0.69387 l -31.050772,12.31623 c -1.561212,0.5204 -1.73468,0.5204 -0.693872,3.29589 6.765252,16.30599 22.897774,26.54061 46.489424,26.54061 28.79569,0 51.86693,-15.95906 51.86693,-44.92822 z"
         style="font-style:normal;font-variant:normal;font-weight:bold;font-stretch:normal;font-size:173.468px;font-family:'Eagle Black';-inkscape-font-specification:'Eagle Black, Bold';fill:#ffffff;stroke-width:1.44557"
         id="path973" />
      <path
         d="m 287.82788,417.86668 c 0,-9.54074 0,-27.92835 0,-39.72417 0,-1.38775 -0.17347,-1.73468 -1.38774,-1.73468 H 183.57361 c -1.38774,0 -1.38774,0.34693 -1.38774,1.73468 0,11.79582 0,30.18343 0,39.72417 0,1.04081 0,1.21428 1.21427,1.21428 l 26.36714,-1.73468 c 0,0 0,53.60161 0,75.11164 0,1.73468 0,1.56121 1.73468,1.56121 11.44889,0 35.90788,0 48.05064,0 1.56121,0 1.73468,-0.17346 1.73468,-1.56121 0,-13.5305 0,-75.11164 0,-75.11164 l 25.32632,1.73468 c 1.04081,0 1.21428,-0.17347 1.21428,-1.21428 z"
         style="font-style:normal;font-variant:normal;font-weight:bold;font-stretch:normal;font-size:173.468px;font-family:'Eagle Black';-inkscape-font-specification:'Eagle Black, Bold';fill:#ffffff;stroke-width:1.44557"
         id="path975" />
      <path
         d="M 404.99046,452.56028 V 377.6221 c 0,-1.21427 0,-1.21427 -0.86734,-1.21427 -10.40808,0 -38.68337,0 -48.05064,0 -1.21427,0 -1.21427,0.17347 -1.21427,1.21427 v 70.77495 c 0,4.68364 -0.86734,6.24485 -4.16324,6.24485 -3.29589,0 -4.16323,-1.73468 -4.16323,-6.24485 v -70.60148 c 0,-1.38774 0,-1.38774 -1.21427,-1.38774 -9.36728,0 -40.41805,0 -50.82613,0 -0.86734,0 -0.86734,0 -0.86734,1.04081 v 73.37696 c 0,26.71407 20.29576,47.53023 54.29549,47.53023 37.46908,0 57.07097,-17.8672 57.07097,-45.79555 z"
         style="font-style:normal;font-variant:normal;font-weight:bold;font-stretch:normal;font-size:173.468px;font-family:'Eagle Black';-inkscape-font-specification:'Eagle Black, Bold';fill:#ffffff;stroke-width:1.44557"
         id="path977" />
      <path
         d="m 526.90499,435.21348 c 0,-38.16296 -18.73454,-58.80565 -58.63218,-58.80565 h -50.82613 c -1.56121,0 -1.73468,0.34693 -1.73468,1.73468 0,44.06087 0,70.25454 0,114.31541 0,1.73468 0.17347,1.56121 1.73468,1.56121 h 46.48943 c 42.32619,0 62.96888,-19.08148 62.96888,-58.80565 z m -51.17306,-0.5204 c 0,15.26518 -5.03057,19.77535 -10.75502,19.77535 h -2.77548 v -38.5099 h 3.12242 c 5.37751,0 10.40808,5.03058 10.40808,18.73455 z"
         style="font-style:normal;font-variant:normal;font-weight:bold;font-stretch:normal;font-size:173.468px;font-family:'Eagle Black';-inkscape-font-specification:'Eagle Black, Bold';fill:#ffffff;stroke-width:1.44557"
         id="path979" />
      <path
         d="m 588.39624,492.45792 c 0,-27.23447 0,-87.60134 0,-114.48888 0,-1.38774 -0.17347,-1.56121 -1.73468,-1.56121 -12.14276,0 -37.29562,0 -48.74451,0 -1.73468,0 -1.73468,-0.17347 -1.73468,1.56121 0,41.45885 0,69.73414 0,114.48888 0,1.73468 0,1.56121 1.73468,1.56121 11.44889,0 36.60175,0 48.74451,0 1.56121,0 1.73468,-0.17346 1.73468,-1.56121 z"
         style="font-style:normal;font-variant:normal;font-weight:bold;font-stretch:normal;font-size:173.468px;font-family:'Eagle Black';-inkscape-font-specification:'Eagle Black, Bold';fill:#ffffff;stroke-width:1.44557"
         id="path981" />
      <path
         d="m 720.94651,435.56042 c 0,-38.68337 -30.53037,-62.79542 -63.66276,-62.79542 -34.6936,0 -63.66275,25.32633 -63.66275,62.62195 0,35.38747 26.5406,62.79542 63.66275,62.79542 33.6528,0 63.66276,-25.84674 63.66276,-62.62195 z m -52.56081,-0.34694 c 0,7.28566 -4.8571,11.62236 -11.10195,11.62236 -6.41831,0 -10.92848,-4.16323 -10.92848,-11.62236 0,-6.07138 4.16323,-10.58155 10.92848,-10.58155 6.76525,0 11.10195,4.16324 11.10195,10.58155 z"
         style="font-style:normal;font-variant:normal;font-weight:bold;font-stretch:normal;font-size:173.468px;font-family:'Eagle Black';-inkscape-font-specification:'Eagle Black, Bold';fill:#ffffff;stroke-width:1.44557"
         id="path983" />
      <path
         d="m 820.36335,453.25415 c 0,-26.0202 -18.04067,-33.47932 -35.214,-36.42828 -2.42856,-0.34693 -4.51017,-0.69387 -6.24485,-1.0408 -6.41832,-1.04081 -8.6734,-3.46936 -8.6734,-5.37751 0,-1.73468 1.56121,-2.94896 4.3367,-2.94896 3.64283,0 7.63259,1.90815 8.84687,4.68364 0.5204,1.38774 0.69387,1.38774 2.08161,0.69387 l 29.66303,-11.62236 c 1.73468,-0.69387 1.56121,-0.86734 1.21428,-2.94895 -3.29589,-15.09172 -17.86721,-25.4998 -42.15273,-25.4998 -32.95892,0 -50.47919,17.3468 -50.47919,44.40781 0,27.40794 22.89778,35.04054 36.08135,36.08134 1.21427,0.17347 3.12242,0.34694 4.3367,0.52041 4.8571,0.69387 6.41831,2.60202 6.41831,5.55097 0,2.08162 -1.90814,3.64283 -5.20404,3.64283 -3.98976,0 -8.32646,-2.25508 -9.54074,-6.24485 -0.34693,-1.21427 -0.5204,-1.38774 -2.08161,-0.69387 l -31.05077,12.31623 c -1.56122,0.5204 -1.73468,0.5204 -0.69388,3.29589 6.76526,16.30599 22.89778,26.54061 46.48943,26.54061 28.79569,0 51.86693,-15.95906 51.86693,-44.92822 z"
         style="font-style:normal;font-variant:normal;font-weight:bold;font-stretch:normal;font-size:173.468px;font-family:'Eagle Black';-inkscape-font-specification:'Eagle Black, Bold';fill:#ffffff;stroke-width:1.44557"
         id="path985" />
    </g>
  </g>
</svg>
